<svg width="182" height="228" viewBox="0 0 182 228" fill="none" xmlns="http://www.w3.org/2000/svg">
<g clip-path="url(#clip0_16177_83)">
<path d="M74.3169 41.9465C77.2616 41.9465 79.6489 39.5592 79.6489 36.6146C79.6489 33.1367 80.368 32.1603 81.8012 30.2141C85.8059 24.7759 88.2511 20.2309 88.2511 13.1696C88.2511 9.19058 86.9835 5.75752 85.8791 3.21169C84.7071 0.510172 81.5663 -0.73075 78.8658 0.442279C76.1643 1.61424 74.9244 4.75405 76.096 7.45557C76.7903 9.05586 77.5872 11.1517 77.5872 13.1693C77.5872 17.6264 75.9489 20.1755 73.2143 23.8904C71.33 26.4494 68.9854 29.6336 68.9854 36.6142C68.985 39.5592 71.3723 41.9465 74.3169 41.9465Z" fill="#EFC81A"/>
<path d="M99.0807 41.9462C102.025 41.9462 104.413 39.5589 104.413 36.6143C104.413 33.1368 105.132 32.1599 106.565 30.2138C110.576 24.7667 113.015 20.2164 113.015 13.1693C113.015 9.19062 111.747 5.75792 110.643 3.21173C109.472 0.509859 106.331 -0.729996 103.63 0.44161C100.928 1.61357 99.6886 4.75338 100.86 7.4549C101.554 9.05555 102.351 11.1514 102.351 13.169C102.351 17.6226 100.717 20.1691 97.9785 23.8904C96.0941 26.4491 93.7495 29.6333 93.7495 36.6139C93.7488 39.5589 96.1361 41.9462 99.0807 41.9462Z" fill="#EFC81A"/>
<path d="M123.088 148.606L117.735 129.742C114.462 131.19 111.09 132.369 107.651 133.271L112.831 151.524C108.451 154.539 105.573 159.585 105.573 165.292C105.573 174.504 113.068 181.999 122.28 181.999C131.492 181.999 138.987 174.504 138.987 165.292C138.987 156.351 131.926 149.029 123.088 148.606Z" fill="#EFC81A"/>
<path d="M90.9997 124.769C111.678 124.769 129.913 113.255 140.505 95.8496H41.4937C52.0865 113.255 70.3214 124.769 90.9997 124.769Z" fill="#EFC81A"/>
<path d="M159.249 51.5439H22.7509C19.8062 51.5439 17.4189 53.9312 17.4189 56.8759C17.4189 59.8205 19.8062 62.2078 22.7509 62.2078H31.8038C31.9684 70.3263 33.5396 78.0768 36.2631 85.1857H145.737C148.46 78.0768 150.031 70.3263 150.196 62.2078H159.249C162.193 62.2078 164.581 59.8205 164.581 56.8759C164.581 53.9312 162.193 51.5439 159.249 51.5439Z" fill="#EFC81A"/>
<path d="M54.5326 175.429C53.7342 178.774 56.2704 181.999 59.7234 181.999C62.1345 181.999 64.321 180.352 64.9053 177.904L75.4882 133.566C72.026 132.724 68.6285 131.598 65.3269 130.205L54.5326 175.429Z" fill="#EFC81A"/>
<path d="M85.668 135.206V176.667C85.668 179.612 88.0553 181.999 90.9999 181.999C93.9446 181.999 96.3319 179.612 96.3319 176.667V135.206C92.6407 135.509 89.3666 135.509 85.668 135.206Z" fill="#EFC81A"/>
</g>
<path d="M49.426 208.364V221H46.348V213.422L43.522 221H41.038L38.194 213.404V221H35.116V208.364H38.752L42.298 217.112L45.808 208.364H49.426ZM51.0274 215.96C51.0274 214.928 51.2194 214.022 51.6034 213.242C51.9994 212.462 52.5334 211.862 53.2054 211.442C53.8774 211.022 54.6274 210.812 55.4554 210.812C56.1634 210.812 56.7814 210.956 57.3094 211.244C57.8494 211.532 58.2634 211.91 58.5514 212.378V210.956H61.6294V221H58.5514V219.578C58.2514 220.046 57.8314 220.424 57.2914 220.712C56.7634 221 56.1454 221.144 55.4374 221.144C54.6214 221.144 53.8774 220.934 53.2054 220.514C52.5334 220.082 51.9994 219.476 51.6034 218.696C51.2194 217.904 51.0274 216.992 51.0274 215.96ZM58.5514 215.978C58.5514 215.21 58.3354 214.604 57.9034 214.16C57.4834 213.716 56.9674 213.494 56.3554 213.494C55.7434 213.494 55.2214 213.716 54.7894 214.16C54.3694 214.592 54.1594 215.192 54.1594 215.96C54.1594 216.728 54.3694 217.34 54.7894 217.796C55.2214 218.24 55.7434 218.462 56.3554 218.462C56.9674 218.462 57.4834 218.24 57.9034 217.796C58.3354 217.352 58.5514 216.746 58.5514 215.978ZM76.6722 210.848C77.9202 210.848 78.9102 211.226 79.6422 211.982C80.3862 212.738 80.7582 213.788 80.7582 215.132V221H77.6982V215.546C77.6982 214.898 77.5242 214.4 77.1762 214.052C76.8402 213.692 76.3722 213.512 75.7722 213.512C75.1722 213.512 74.6982 213.692 74.3502 214.052C74.0142 214.4 73.8462 214.898 73.8462 215.546V221H70.7862V215.546C70.7862 214.898 70.6122 214.4 70.2642 214.052C69.9282 213.692 69.4602 213.512 68.8602 213.512C68.2602 213.512 67.7862 213.692 67.4382 214.052C67.1022 214.4 66.9342 214.898 66.9342 215.546V221H63.8562V210.956H66.9342V212.216C67.2462 211.796 67.6542 211.466 68.1582 211.226C68.6622 210.974 69.2322 210.848 69.8682 210.848C70.6242 210.848 71.2962 211.01 71.8842 211.334C72.4842 211.658 72.9522 212.12 73.2882 212.72C73.6362 212.168 74.1102 211.718 74.7102 211.37C75.3102 211.022 75.9642 210.848 76.6722 210.848ZM82.2989 215.96C82.2989 214.928 82.4909 214.022 82.8749 213.242C83.2709 212.462 83.8049 211.862 84.4769 211.442C85.1489 211.022 85.8989 210.812 86.7269 210.812C87.4349 210.812 88.0529 210.956 88.5809 211.244C89.1209 211.532 89.5349 211.91 89.8229 212.378V210.956H92.9009V221H89.8229V219.578C89.5229 220.046 89.1029 220.424 88.5629 220.712C88.0349 221 87.4169 221.144 86.7089 221.144C85.8929 221.144 85.1489 220.934 84.4769 220.514C83.8049 220.082 83.2709 219.476 82.8749 218.696C82.4909 217.904 82.2989 216.992 82.2989 215.96ZM89.8229 215.978C89.8229 215.21 89.6069 214.604 89.1749 214.16C88.7549 213.716 88.2389 213.494 87.6269 213.494C87.0149 213.494 86.4929 213.716 86.0609 214.16C85.6409 214.592 85.4309 215.192 85.4309 215.96C85.4309 216.728 85.6409 217.34 86.0609 217.796C86.4929 218.24 87.0149 218.462 87.6269 218.462C88.2389 218.462 88.7549 218.24 89.1749 217.796C89.6069 217.352 89.8229 216.746 89.8229 215.978ZM105.386 221L102.758 216.23H102.02V221H98.9422V208.364H104.108C105.104 208.364 105.95 208.538 106.646 208.886C107.354 209.234 107.882 209.714 108.23 210.326C108.578 210.926 108.752 211.598 108.752 212.342C108.752 213.182 108.512 213.932 108.032 214.592C107.564 215.252 106.868 215.72 105.944 215.996L108.86 221H105.386ZM102.02 214.052H103.928C104.492 214.052 104.912 213.914 105.188 213.638C105.476 213.362 105.62 212.972 105.62 212.468C105.62 211.988 105.476 211.61 105.188 211.334C104.912 211.058 104.492 210.92 103.928 210.92H102.02V214.052ZM120.152 215.816C120.152 216.104 120.134 216.404 120.098 216.716H113.132C113.18 217.34 113.378 217.82 113.726 218.156C114.086 218.48 114.524 218.642 115.04 218.642C115.808 218.642 116.342 218.318 116.642 217.67H119.918C119.75 218.33 119.444 218.924 119 219.452C118.568 219.98 118.022 220.394 117.362 220.694C116.702 220.994 115.964 221.144 115.148 221.144C114.164 221.144 113.288 220.934 112.52 220.514C111.752 220.094 111.152 219.494 110.72 218.714C110.288 217.934 110.072 217.022 110.072 215.978C110.072 214.934 110.282 214.022 110.702 213.242C111.134 212.462 111.734 211.862 112.502 211.442C113.27 211.022 114.152 210.812 115.148 210.812C116.12 210.812 116.984 211.016 117.74 211.424C118.496 211.832 119.084 212.414 119.504 213.17C119.936 213.926 120.152 214.808 120.152 215.816ZM117.002 215.006C117.002 214.478 116.822 214.058 116.462 213.746C116.102 213.434 115.652 213.278 115.112 213.278C114.596 213.278 114.158 213.428 113.798 213.728C113.45 214.028 113.234 214.454 113.15 215.006H117.002ZM121.164 215.978C121.164 214.934 121.374 214.022 121.794 213.242C122.226 212.462 122.82 211.862 123.576 211.442C124.344 211.022 125.22 210.812 126.204 210.812C127.464 210.812 128.514 211.142 129.354 211.802C130.206 212.462 130.764 213.392 131.028 214.592H127.752C127.476 213.824 126.942 213.44 126.15 213.44C125.586 213.44 125.136 213.662 124.8 214.106C124.464 214.538 124.296 215.162 124.296 215.978C124.296 216.794 124.464 217.424 124.8 217.868C125.136 218.3 125.586 218.516 126.15 218.516C126.942 218.516 127.476 218.132 127.752 217.364H131.028C130.764 218.54 130.206 219.464 129.354 220.136C128.502 220.808 127.452 221.144 126.204 221.144C125.22 221.144 124.344 220.934 123.576 220.514C122.82 220.094 122.226 219.494 121.794 218.714C121.374 217.934 121.164 217.022 121.164 215.978ZM134.223 209.912C133.683 209.912 133.239 209.756 132.891 209.444C132.555 209.12 132.387 208.724 132.387 208.256C132.387 207.776 132.555 207.38 132.891 207.068C133.239 206.744 133.683 206.582 134.223 206.582C134.751 206.582 135.183 206.744 135.519 207.068C135.867 207.38 136.041 207.776 136.041 208.256C136.041 208.724 135.867 209.12 135.519 209.444C135.183 209.756 134.751 209.912 134.223 209.912ZM135.753 210.956V221H132.675V210.956H135.753ZM141.061 212.378C141.361 211.91 141.775 211.532 142.303 211.244C142.831 210.956 143.449 210.812 144.157 210.812C144.985 210.812 145.735 211.022 146.407 211.442C147.079 211.862 147.607 212.462 147.991 213.242C148.387 214.022 148.585 214.928 148.585 215.96C148.585 216.992 148.387 217.904 147.991 218.696C147.607 219.476 147.079 220.082 146.407 220.514C145.735 220.934 144.985 221.144 144.157 221.144C143.461 221.144 142.843 221 142.303 220.712C141.775 220.424 141.361 220.052 141.061 219.596V225.788H137.983V210.956H141.061V212.378ZM145.453 215.96C145.453 215.192 145.237 214.592 144.805 214.16C144.385 213.716 143.863 213.494 143.239 213.494C142.627 213.494 142.105 213.716 141.673 214.16C141.253 214.604 141.043 215.21 141.043 215.978C141.043 216.746 141.253 217.352 141.673 217.796C142.105 218.24 142.627 218.462 143.239 218.462C143.851 218.462 144.373 218.24 144.805 217.796C145.237 217.34 145.453 216.728 145.453 215.96ZM159.668 215.816C159.668 216.104 159.65 216.404 159.614 216.716H152.648C152.696 217.34 152.894 217.82 153.242 218.156C153.602 218.48 154.04 218.642 154.556 218.642C155.324 218.642 155.858 218.318 156.158 217.67H159.434C159.266 218.33 158.96 218.924 158.516 219.452C158.084 219.98 157.538 220.394 156.878 220.694C156.218 220.994 155.48 221.144 154.664 221.144C153.68 221.144 152.804 220.934 152.036 220.514C151.268 220.094 150.668 219.494 150.236 218.714C149.804 217.934 149.588 217.022 149.588 215.978C149.588 214.934 149.798 214.022 150.218 213.242C150.65 212.462 151.25 211.862 152.018 211.442C152.786 211.022 153.668 210.812 154.664 210.812C155.636 210.812 156.5 211.016 157.256 211.424C158.012 211.832 158.6 212.414 159.02 213.17C159.452 213.926 159.668 214.808 159.668 215.816ZM156.518 215.006C156.518 214.478 156.338 214.058 155.978 213.746C155.618 213.434 155.168 213.278 154.628 213.278C154.112 213.278 153.674 213.428 153.314 213.728C152.966 214.028 152.75 214.454 152.666 215.006H156.518ZM162.732 221.144C162.192 221.144 161.748 220.988 161.4 220.676C161.064 220.352 160.896 219.956 160.896 219.488C160.896 219.008 161.064 218.606 161.4 218.282C161.748 217.958 162.192 217.796 162.732 217.796C163.26 217.796 163.692 217.958 164.028 218.282C164.376 218.606 164.55 219.008 164.55 219.488C164.55 219.956 164.376 220.352 164.028 220.676C163.692 220.988 163.26 221.144 162.732 221.144Z" fill="#EFC81A"/>
<defs>
<clipPath id="clip0_16177_83">
<rect width="182" height="182" fill="white"/>
</clipPath>
</defs>
</svg>
